<?xml version="1.0" standalone="no"?>
<!DOCTYPE svg PUBLIC "-//W3C//DTD SVG 20010904//EN"
 "http://www.w3.org/TR/2001/REC-SVG-20010904/DTD/svg10.dtd">
<svg version="1.0" xmlns="http://www.w3.org/2000/svg"
 width="64.000000pt" height="64.000000pt" viewBox="0 0 64.000000 64.000000"
 preserveAspectRatio="xMidYMid meet">

<g transform="translate(0.000000,64.000000) scale(0.100000,-0.100000)"
fill="#000000" stroke="none">
<path d="M460 505 c0 -9 -9 -15 -21 -15 -21 0 -69 -43 -101 -90 l-17 -25 -23
30 c-57 75 -74 86 -130 83 -45 -3 -53 -6 -53 -23 0 -16 8 -21 47 -25 26 -3 49
-8 51 -10 2 -3 19 -27 37 -53 36 -55 35 -60 -19 -134 -26 -36 -36 -42 -73 -45
-35 -2 -43 -7 -43 -23 0 -16 8 -21 39 -23 64 -5 84 5 122 63 20 30 40 55 43
55 3 -1 22 -24 41 -53 25 -36 45 -55 68 -62 17 -5 32 -15 32 -22 0 -20 20 -16
62 13 34 24 37 29 24 43 -8 9 -29 24 -46 34 -31 19 -31 19 -37 -2 -3 -12 -9
-21 -14 -21 -5 0 -29 27 -54 61 l-45 61 32 46 c48 73 72 87 81 51 6 -21 6 -21
37 -2 17 10 38 25 46 34 13 14 10 19 -24 43 -43 29 -62 33 -62 11z"/>
</g>
</svg>
